<svg xmlns="http://www.w3.org/2000/svg" xml:space="preserve" width="800" height="800" viewBox="0 0 512 512"><path d="M256 12C123.452 12 16 169.073 16 294.961c0 99.245 66.783 149.48 159.996 166.299h160.009C429.217 444.442 496 394.207 496 294.961 496 169.073 388.548 12 256 12" style="fill:#cccbcd"/><path d="M256 380c-75.111 0-136-60.889-136-136V140c0-22.091 17.909-40 40-40h192c22.091 0 40 17.909 40 40v104c0 75.111-60.889 136-136 136" style="fill:#9f9ca1"/><path d="M256 441c-27.544-.605-89.989-6.16-96-37.625V404c0 53.019 42.98 96 96 96s96-42.981 96-96v-3.687c-5.042 33.721-80.99 41.017-96 40.687" style="fill:#464655"/><path d="M343.999 90 280 88l-24 10-24-10-63.998 2L121 106v64c0 17.756 24.667 33.223 39 41.526V393c-.644 3.739-.608 7.189 0 10.375 6.011 31.465 68.456 37.02 96 37.625 15.01.33 90.958-6.966 96-40.687.346-2.313.364-4.747 0-7.313V211.526c14.333-8.303 40-23.77 40-41.526v-64z" style="fill:#6b676e"/><circle cx="200" cy="124" r="16" style="fill:#ff825f"/><circle cx="312" cy="124" r="16" style="fill:#ff825f"/><path d="M368 88c-4.617 0-10.531-2.656-17.383-5.734C340.445 77.688 327.789 72 312 72s-28.445 5.688-38.617 10.266C266.531 85.344 260.617 88 256 88s-10.531-2.656-17.383-5.734C228.445 77.688 215.789 72 200 72s-28.445 5.688-38.617 10.266C154.531 85.344 148.617 88 144 88c-6.625 0-12 5.375-12 12s5.375 12 12 12c9.766 0 18.641-3.992 27.219-7.844C180.141 100.148 189.359 96 200 96c24 0 32 28 56 28s32-28 56-28c10.641 0 19.859 4.148 28.781 8.156C349.359 108.008 358.234 112 368 112c6.625 0 12-5.375 12-12s-5.375-12-12-12" style="fill:#464655"/><path d="M400 72s20-32 32-32 16 96 16 96M80 40c-12 0-16 96-16 96l48-64S92 40 80 40" style="fill:#6b676e"/><path d="M278.906 456.076c-8.673 1.198-16.808 1.857-22.906 1.857s-14.232-.66-22.906-1.857a8 8 0 0 0-2.188 15.85c9.375 1.295 18.288 2.008 25.094 2.008s15.719-.713 25.094-2.008a8 8 0 0 0-2.188-15.85M236.833 346.425c-4.013-2.813-12.364-8.667-12.97-11.899-.814-4.343-4.992-7.209-9.337-6.389a8 8 0 0 0-6.389 9.337c1.808 9.643 11.625 16.523 19.512 22.052 1.704 1.194 3.935 2.758 5.021 3.686A8.001 8.001 0 0 0 247.999 360c.001-5.748-4.683-9.031-11.166-13.575M297.474 328.137c-4.344-.82-8.523 2.046-9.337 6.389-.606 3.232-8.957 9.085-12.97 11.899C268.684 350.969 264 354.252 264 360a8 8 0 0 0 15.329 3.212c1.086-.927 3.317-2.491 5.021-3.686 7.888-5.529 17.705-12.41 19.512-22.052a8 8 0 0 0-6.388-9.337M224 128c0-13.234-10.766-24-24-24s-24 10.766-24 24 10.766 24 24 24 24-10.766 24-24m-24 8c-4.411 0-8-3.589-8-8s3.589-8 8-8 8 3.589 8 8-3.589 8-8 8M312 104c-13.234 0-24 10.766-24 24s10.766 24 24 24 24-10.766 24-24-10.766-24-24-24m0 32c-4.411 0-8-3.589-8-8s3.589-8 8-8 8 3.589 8 8-3.589 8-8 8"/><path d="M354.663 88.456C353.684 88.111 330.218 80 288 80c-14.688 0-25.162 3.487-32 10.631C249.162 83.487 238.688 80 224 80c-42.218 0-65.684 8.111-66.663 8.456-4.16 1.468-6.337 6.023-4.879 10.186s6.019 6.357 10.187 4.908c.217-.075 22.163-7.55 61.355-7.55 10.188 0 17.16 2.009 20.72 5.971 1.61 1.792 2.673 4.172 3.208 7.173-.36 3.456-.333 7.218.082 11.307-.042 4.014-.065 21.522-.009 103.554a8 8 0 0 0 8 7.995h.005a8 8 0 0 0 7.995-8.005c-.019-27.389-.056-98.142-.007-103.506.419-4.109.444-7.884.082-11.354.534-2.996 1.597-5.373 3.206-7.163C270.84 98.009 277.812 96 288 96c39.192 0 61.138 7.475 61.337 7.544a8 8 0 0 0 5.326-15.088"/><path d="M455.921 134.084c-.271-5.761-1.333-26.444-3.464-46.913-1.485-14.256-3.2-25.681-5.097-33.958C445.782 46.328 442.499 32 432 32c-7.715 0-16.202 6.023-26.709 18.955-2.987 3.677-5.655 7.327-7.721 10.285-13.935-12.927-28.66-24.021-44.077-33.144C321.985 9.453 289.183 0 256 0s-65.985 9.453-97.493 28.097c-15.417 9.123-30.142 20.217-44.077 33.144-2.066-2.958-4.734-6.608-7.721-10.285C96.202 38.023 87.715 32 80 32c-10.499 0-13.782 14.328-15.36 21.213-1.897 8.277-3.612 19.703-5.097 33.958-2.132 20.469-3.193 41.152-3.464 46.913C25.568 185.125 8 243.3 8 296c0 50.229 15.97 91.218 47.467 121.828 28.146 27.353 68.211 45.959 119.083 55.301.162.03.323.044.484.063C194.115 496.842 223.318 512 256 512c32.68 0 61.883-15.157 80.963-38.804.162-.02.324-.037.486-.066 50.872-9.342 90.938-27.948 119.083-55.301C488.03 387.218 504 346.229 504 296c0-52.7-17.568-110.875-48.079-161.916M429.577 49.09c1.669 4.4 4.72 15.945 7.502 45.121.426 4.471.801 8.887 1.127 13.084a341 341 0 0 0-6.181-8.248c-7.321-9.437-14.952-18.264-22.868-26.464 7.148-10.683 15.572-20.312 20.42-23.493M256 16c40.127 0 79.841 15.315 115.771 44C344.47 53.509 294.093 48 256 48s-88.471 5.51-115.771 12C176.159 31.316 215.873 16 256 16M74.92 94.211c2.777-29.12 5.822-40.676 7.493-45.096 4.902 3.211 13.303 12.815 20.428 23.468-7.916 8.2-15.546 17.027-22.868 26.464a347 347 0 0 0-6.181 8.248c.328-4.197.702-8.612 1.128-13.084M256 496c-41.053 0-75.626-28.258-85.301-66.344C198.066 442.126 235.768 448 256 448s57.934-5.874 85.301-18.344C331.626 467.742 297.053 496 256 496m93.066-41.621C356.058 440.408 360 424.657 360 408V240c0-.207-.009-.423-.025-.628-.751-9.686.958-22.26 4.613-24.818a8 8 0 0 0-9.176-13.108c-12.819 8.973-11.83 33.226-11.412 38.86V408q0 1.13-.028 2.255C320.387 424.448 278.127 432 256 432s-64.387-7.552-87.971-21.745A89 89 0 0 1 168 408V240.307c.417-5.635 1.407-29.887-11.412-38.86a8 8 0 1 0-9.176 13.108c3.654 2.558 5.364 15.132 4.613 24.808A8 8 0 0 0 152 240v168c0 16.657 3.942 32.408 10.934 46.379C96.428 438.946 24 398.58 24 296c0-61.802 25.65-131.763 68.615-187.145a315 315 0 0 1 19.736-23.074 8 8 0 0 0-.318 2.219v72c0 1.735-.009 3.338-.018 4.829-.085 14.552-.124 21.194 10.072 32.522a7.98 7.98 0 0 0 5.949 2.648 8 8 0 0 0 5.944-13.352c-6.052-6.725-6.044-8.145-5.965-21.726.009-1.52.019-3.154.019-4.923v-56.015a8 8 0 0 0 7.592-4.37 8 8 0 0 0-3.521-10.752c-2.596-1.315-3.929-3.775-3.904-5.525.023-1.578 1.266-2.958 3.694-4.1C144.684 73.221 205.37 64 256 64s111.317 9.221 124.106 15.239c2.428 1.143 3.671 2.522 3.694 4.1.025 1.75-1.307 4.209-3.904 5.525a8 8 0 0 0 3.623 15.138c.16 0 .321-.018.481-.028V160c0 1.769.01 3.403.019 4.923.079 13.581.087 15-5.965 21.726a8 8 0 0 0 .595 11.298 7.97 7.97 0 0 0 5.349 2.054 7.98 7.98 0 0 0 5.949-2.648c10.196-11.329 10.157-17.97 10.072-32.522A709 709 0 0 1 400 160V88c0-.754-.111-1.48-.306-2.171a315 315 0 0 1 19.691 23.026C462.35 164.237 488 234.198 488 296c0 102.58-72.428 142.946-138.934 158.379"/></svg>