<svg xmlns="http://www.w3.org/2000/svg" xml:space="preserve" width="800" height="800" viewBox="0 0 512 512"><path d="M265 181.65c13.333 24.063 0 21.889 0 49.5 0 36.438 8 95.563 8 132 0 24.196-5.693 48.882-10.288 64.862-1.657 5.764-9.768 5.764-11.425 0C246.693 412.032 241 387.347 241 363.15c0-36.438 8-95.563 8-132 0-27.611-13.333-25.438 0-49.5z" style="fill:#46b8be"/><path d="M271.989 381.65H242.01c.566 5.473 1.347 10.834 2.248 16h25.483c.902-5.166 1.682-10.527 2.248-16M243.325 317.65c-.427 5.446-.821 10.802-1.16 16h29.67c-.339-5.198-.733-10.554-1.16-16zM241 363.15c0 .833.057 1.666.07 2.5h31.86c.013-.834.07-1.667.07-2.5 0-4.211-.117-8.753-.306-13.5h-31.389c-.188 4.747-.305 9.289-.305 13.5M265.617 221.65h-17.233c.374 2.74.617 5.846.617 9.5 0 2.089-.033 4.271-.083 6.5h16.165a298 298 0 0 1-.083-6.5c0-3.654.243-6.759.617-9.5M245.954 285.65c-.436 5.313-.883 10.658-1.329 16h24.75c-.446-5.342-.893-10.687-1.329-16zM248.266 253.65a918 918 0 0 1-1.056 16h19.58a918 918 0 0 1-1.056-16z" style="fill:#4691be"/><ellipse cx="256" cy="147.999" rx="24" ry="36" style="fill:#46d7a5"/><ellipse cx="256" cy="95.999" rx="24" ry="16" style="fill:#9f8076"/><path d="M192 136c-37.07 5.853-114 2-144 8-25.795 5.159-40 26.667-40 32s59.333 24 88 24 136-32 136-32v-16s-14.667-20-40-16M128 216c-27.333 7.333-81.024 25.096-96 48-11.333 17.333 3.286 24 8 24 13.333 0 94.667 0 120-8s54.333-9.674 85-49.007l-1-51L232 168s-76.667 40.667-104 48M504 176c0-5.333-14.205-26.841-40-32-30-6-106.93-2.147-144-8-25.333-4-40 16-40 16v16s107.333 32 136 32 88-18.667 88-24M352 280c25.333 8 106.667 8 120 8 4.714 0 19.333-6.667 8-24-14.976-22.904-68.667-40.667-96-48s-104-48-104-48l-11 13.993L262 232c30.667 39.333 64.667 40 90 48" style="fill:#f0ebe1"/><path d="M465.569 136.155c-15.9-3.18-43.082-3.689-71.859-4.229-26.9-.504-54.716-1.025-72.462-3.828-14.771-2.333-26.434 2.114-34.535 7.313a56 56 0 0 0-.451-1.971l22.176-14.784a8 8 0 0 0 3.563-6.656V84.944l11.578-5.789a8 8 0 1 0-7.155-14.31l-16 8A8 8 0 0 0 296.002 80v27.719L279.9 118.453a39 39 0 0 0-3.072-4.101C283.699 109.983 288 103.439 288 96c0-13.458-14.056-24-32-24s-32 10.542-32 24c0 7.439 4.301 13.983 11.174 18.353a39 39 0 0 0-3.072 4.101L216 107.719V80a8 8 0 0 0-4.422-7.155l-16-8a8 8 0 1 0-7.155 14.31L200 84.944V112a8 8 0 0 0 3.563 6.656l22.176 14.784q-.242.976-.451 1.974c-8.102-5.199-19.766-9.647-34.535-7.316-17.746 2.803-45.562 3.324-72.462 3.828-28.778.54-55.959 1.05-71.859 4.229C18.082 141.825 0 165.508 0 176c0 6.736 6.928 10.176 14.646 13.387 6.318 2.628 14.976 5.574 24.378 8.298C61.33 204.144 82.629 208 96 208c11.404 0 34.003-4.638 57.688-10.401-11.099 4.907-21.052 8.875-27.761 10.675-24.448 6.559-83.193 24.691-100.623 51.349-7.653 11.704-5.97 20.243-3.21 25.345 3.876 7.166 12.119 11.033 17.906 11.033 35.815 0 99.344-1.088 122.409-8.371 3.875-1.225 7.681-2.26 11.71-3.355 20.213-5.499 41.062-11.188 65.578-39.334-.633 15.185-2.168 33-3.667 50.372-1.981 22.948-4.03 46.678-4.03 64.688 0 40.386 15.879 81.211 16.556 82.929a8 8 0 0 0 14.888 0c.676-1.718 16.556-42.543 16.556-82.929 0-18.011-2.048-41.74-4.03-64.688-1.5-17.372-3.035-35.188-3.667-50.372 24.517 28.146 45.365 33.835 65.578 39.334 4.029 1.096 7.834 2.131 11.71 3.355 23.065 7.283 86.594 8.371 122.409 8.371 5.787 0 14.029-3.867 17.906-11.033 2.76-5.102 4.443-13.641-3.21-25.345-17.43-26.657-76.175-44.79-100.623-51.349-6.707-1.8-16.659-5.767-27.758-10.675C382 203.363 404.597 208 416.001 208c13.371 0 34.67-3.856 56.975-10.315 9.402-2.724 18.06-5.67 24.378-8.298C505.072 186.176 512 182.737 512 176c0-10.492-18.082-34.175-46.431-39.845M96 192c-22.97 0-65.096-12.488-78.346-18.696 3.985-6.255 14.702-18.017 31.915-21.459 14.495-2.899 42.215-3.419 69.021-3.922 27.443-.515 55.821-1.047 74.657-4.021 12.916-2.04 22.414 3.637 27.663 8.098H192q-.792 0-1.569.155l-40 8a8 8 0 0 0 3.137 15.69L192.791 168H203.1c-36.695 10.278-89.624 24-107.1 24m96.421 69.468c-7.55 3.297-14.949 5.313-22.502 7.367-4.004 1.089-8.146 2.216-12.329 3.536-15.116 4.773-59.022 7.625-117.463 7.629-.857-.128-3.25-1.123-4.038-2.799-.84-1.789.109-5.005 2.606-8.823 11.786-18.024 56.59-35.318 91.377-44.651 24.603-6.601 85.567-38.113 101.765-46.601 1.734 2.729 3.712 5.153 5.896 7.209a8 8 0 0 0-1.311.51l-16 8a8 8 0 0 0-3.913 4.347l-24 64c-.034.09-.057.184-.088.276m41.27-34.387c-6.62 8.49-12.869 15.037-18.876 20.196l15.573-41.527 3.876-1.938c.377 3.046 1.269 5.97 2.377 9.182 1.054 3.053 2.199 6.385 2.843 11.032a7.97 7.97 0 0 0-5.793 3.055M256 413.63c-3.952-14.7-8-34.444-8-53.63 0-17.322 2.019-40.702 3.97-63.312C253.951 273.74 256 250.01 256 232c0-11.962-2.448-19.052-4.235-24.229-1.942-5.625-2.821-8.188 1.109-15.976 1.027.132 2.069.204 3.125.204s2.098-.072 3.125-.204c3.93 7.787 3.051 10.351 1.109 15.976-1.787 5.177-4.235 12.267-4.235 24.229 0 18.011 2.048 41.74 4.03 64.688 1.952 22.609 3.97 45.989 3.97 63.312.002 19.186-4.046 38.93-7.998 53.63M256 176c-7.568 0-16-11.499-16-28s8.432-28 16-28 16 11.499 16 28-8.432 28-16 28m0-72c-9.767 0-16-4.738-16-8s6.233-8 16-8 16 4.738 16 8-6.233 8-16 8m22.309 123.081a7.98 7.98 0 0 0-5.793-3.057c.644-4.646 1.789-7.979 2.843-11.031 1.109-3.212 2-6.136 2.377-9.182l3.876 1.938 15.573 41.527c-6.007-5.158-12.256-11.705-18.876-20.195m103.618-3.354c34.787 9.333 79.591 26.627 91.377 44.651 2.497 3.818 3.446 7.034 2.606 8.823-.787 1.676-3.18 2.671-4.038 2.799-58.441-.004-102.348-2.855-117.463-7.629-4.183-1.32-8.324-2.447-12.329-3.536-7.553-2.055-14.952-4.07-22.502-7.367-.031-.092-.054-.186-.088-.276l-24-64a8 8 0 0 0-3.913-4.347l-16-8a8 8 0 0 0-1.311-.51c2.184-2.056 4.162-4.479 5.896-7.209 16.198 8.487 77.163 40 101.765 46.601M416 192c-17.476 0-70.405-13.722-107.101-24h10.309l39.223 7.845q.796.157 1.577.157a8 8 0 0 0 1.56-15.847l-40-8a8 8 0 0 0-1.569-.155h-28.913c5.239-4.447 14.747-10.138 27.665-8.098 18.836 2.974 47.214 3.506 74.657 4.021 26.807.503 54.526 1.022 69.021 3.922 17.213 3.442 27.929 15.204 31.915 21.459C481.096 179.512 438.97 192 416 192"/></svg>