<svg xmlns="http://www.w3.org/2000/svg" xml:space="preserve" width="800" height="800" viewBox="0 0 512 512"><path d="M196.749 306.744c-19.5 21.5-48 32-48 32l-32-40 16-8z" style="fill:#b4cbdc"/><path d="M308.749 204.744s-22.5-23.625-48-42c0 0-16 16-48 30l24 18z" style="fill:#7da0be"/><path d="M500.749 242.744c-20 6-32 32-32 32h32c-18.667 15.334-85.333 48-160 48s-142.667 5.334-216-32c-55.831-28.424-55 32-120 32 0 0 16-41 16-64s-16-64-16-64c65 0 63 58 120 32s197-32 224-32 126 35 152 48" style="fill:#ebf5fa"/><path d="M468.749 274.744s12-26 32-32c-12.725-6.363-42.944-17.987-73.643-28.207-40.253 48.484-27.694 82.08-16.146 99.193 43.381-10.808 77.32-28.744 89.789-38.986z" style="fill:#cfe0eb"/><path d="M348.749 194.744c-27 0-167 6-224 32s-55-32-120-32c0 0 16 41 16 64 0 .826-.063 1.723-.104 2.594 99.936 16.699 152.104-29.841 312.104-29.841 28.439 0 48.376 5.542 69.323 14.608l14.826 6.784c3.835 1.858 7.768 3.813 11.852 5.854 32 16 48-16 72-16-26.001-12.999-125.001-47.999-152.001-47.999" style="fill:#96bee1"/><path d="M78.749 295.744c-6.976-5.212-23-22.945-23-36 0-13.553 14.934-28.91 22-34-19.25-15-27.825-31-73-31 0 0 16 41.641 16 65s-16 65-16 65c44.305 0 54-17 74-29M288 196s1.5-23.5-24-48l-48 40 16 16" style="fill:#7da0be"/><path d="M232 324v40s35-6.5 40-40M416 292s-35-24-64-24 1.685 35.089 8 40c4.5 3.5 48 8 48 8" style="fill:#b4cbdc"/><path d="M511.532 273.304A8 8 0 0 0 504 268h-17.799c4.985-6.733 12.028-13.916 20.098-16.337q.057-.02.113-.04c.136-.043.269-.094.402-.144.117-.044.234-.086.348-.135q.177-.078.352-.167c.12-.059.242-.115.358-.18q.158-.09.311-.188c.119-.072.238-.143.352-.221.103-.071.201-.149.3-.225.105-.08.212-.158.313-.242.104-.088.202-.184.301-.275.089-.084.18-.164.265-.25.098-.1.19-.208.283-.314.078-.089.159-.176.233-.268.083-.105.161-.216.24-.325q.116-.156.224-.317.097-.154.189-.315a7 7 0 0 0 .213-.378c.019-.035.04-.066.058-.102.036-.072.063-.146.096-.22a7 7 0 0 0 .303-.751q.067-.191.125-.387a8.375 8.375 0 0 0 .242-1.147 7 7 0 0 0 .067-.775 7.073 7.073 0 0 0-.009-.781 7.6 7.6 0 0 0-.259-1.583c-.021-.078-.035-.157-.058-.235-.011-.038-.028-.073-.04-.111-.043-.137-.094-.271-.144-.404-.044-.117-.086-.234-.135-.348-.05-.117-.107-.23-.163-.345q-.088-.188-.185-.368c-.055-.1-.116-.193-.175-.291-.077-.125-.152-.253-.235-.373-.063-.093-.134-.181-.202-.271-.087-.116-.172-.233-.266-.344-.078-.093-.163-.179-.245-.267-.093-.102-.184-.205-.282-.301-.087-.085-.182-.165-.274-.247-.103-.091-.204-.185-.311-.271-.09-.072-.187-.139-.281-.207-.12-.088-.238-.176-.363-.257-.088-.058-.181-.11-.272-.164a8 8 0 0 0-.424-.239q-.043-.026-.088-.05c-9.091-4.546-27.421-11.931-48.631-19.597a7 7 0 0 0-.487-.176C419.409 202.979 370.792 188 352 188c-8.442 0-29.605.619-56.3 2.42-1.099-9.504-5.921-28.746-26.158-48.188a8 8 0 0 0-10.664-.377l-48 40a8.004 8.004 0 0 0-.535 11.803l4.923 4.923c-34.847 4.956-68.496 12.065-90.586 22.142-18.914 8.628-29.592 6.974-39.869.886a8 8 0 0 0-1.297-.793c-3.654-2.299-7.298-5.126-11.288-8.224C58.119 201.635 40.56 188 8 188a8.002 8.002 0 0 0-7.453 10.907C.702 199.304 16 238.783 16 260S.702 320.696.547 321.093A8 8 0 0 0 8 332c32.485 0 50.249-14.048 64.521-25.336 3.167-2.504 6.089-4.812 8.933-6.813a7.98 7.98 0 0 0 5.074-3.25c7.431-4.206 15.008-5.741 25.769-2.479.038.136.068.272.114.408l16 48a8 8 0 0 0 8.557 5.411c.958-.117 23.701-3.13 44.958-26.566.102-.111.19-.23.284-.348 14.007 3.619 27.909 6.098 41.79 7.784V364a7.997 7.997 0 0 0 8 8q.73 0 1.461-.135c1.553-.288 35.894-7.047 44.975-39.718 5.512.083 11.038.116 16.583.116 8.015 0 16.081-.065 24.191-.131 8.092-.065 16.459-.132 24.79-.132 78.132 0 146.078-34.212 165.078-49.818a8 8 0 0 0 2.454-8.878m-248.121-114.4c12.417 13.939 15.571 26.521 16.354 32.688-14.102 1.123-29.214 2.561-44.479 4.381l-7.435-7.436zM79.93 237.18c12.559 6.502 27.967 8.785 51.39-1.901C187.247 209.768 328.361 204 352 204c13.403 0 48.258 10.012 81.55 21.287-10.026 5.746-17.77 12.814-23.168 18.713-18.496-11.633-51.064-19.162-90.058-20.744-49.386-1.99-108.267 5.256-170.291 20.989-51.617 13.094-75.204 4.226-80.443 1.708 3.347-4.03 7.481-7.002 10.34-8.773m-17.333 56.934c-11.487 9.085-23.307 18.432-42.915 21.121C24.591 300.911 32 276.553 32 260c0-16.564-7.419-40.946-12.329-55.266 19.698 2.597 31.382 11.672 42.743 20.493q1.593 1.24 3.201 2.474C57.535 234.061 48 244.784 48 260c0 14.995 9.259 25.623 17.261 32.016q-1.337 1.047-2.664 2.098m78.645 36.315-9.181-27.542a281 281 0 0 0 32.733 13.047c-9.184 8.455-17.94 12.564-23.552 14.495M240 352.961v-22.535a511 511 0 0 0 21.679 1.279c-4.743 11.629-14.37 17.971-21.679 21.256M344 316c-8.395 0-16.795.067-24.919.134-15.736.126-31.256.249-46.662-.119q-.106-.003-.211-.005c-46.987-1.135-92.902-6.868-140.579-31.139-23.837-12.137-39.49-9.566-52.371-2.488-5.486-3.538-14.625-10.954-15.218-21.324 5.869 2.629 17.39 6.258 36.287 6.258 13.755-.001 31.42-1.926 53.639-7.562 60.548-15.359 117.85-22.447 165.709-20.512 34.947 1.417 64.784 7.929 80.989 17.563a8 8 0 0 0-.665 3.193c0 4.26.862 9.358 2.227 14.718C388.661 267.768 369.572 260 352 260c-12.959 0-17.707 5.911-19.408 10.87-2.397 6.988.167 15.759 7.839 26.813 4.938 7.115 11.331 14.044 14.658 16.631.412.32.987.768 2.245 1.326-4.403.229-8.848.36-13.334.36m65.006-7.93c-.062-.008-.121-.021-.183-.028-17.965-1.858-39.603-4.901-44.321-6.699-1.766-1.555-6.352-6.317-10.511-12.188-4.949-6.986-6.157-11.086-6.261-12.645.608-.21 1.892-.51 4.27-.51 23.249 0 51.924 17.695 58.208 21.764a176 176 0 0 0 4.105 8.994c-1.75.451-3.522.887-5.307 1.312m55.73-35.423A8 8 0 0 0 472 284h3.545c-12.002 6.057-27.552 12.66-45.555 18.291-5.036-9.493-12.844-28.968-13.877-40.026 4.06-5.714 17.658-22.728 39.591-29.208 11.437 4.152 21.966 8.206 30.489 11.744-13.509 10.91-21.043 26.951-21.457 27.846"/><path d="M447.999 252.004c0 2.1.85 4.16 2.34 5.65a8.06 8.06 0 0 0 5.66 2.34c2.11 0 4.17-.851 5.66-2.34a8.03 8.03 0 0 0 2.34-5.65c0-2.11-.85-4.17-2.34-5.66s-3.55-2.35-5.66-2.35c-2.1 0-4.16.859-5.66 2.35a8.05 8.05 0 0 0-2.34 5.66"/></svg>