<svg xmlns="http://www.w3.org/2000/svg" xml:space="preserve" width="800" height="800" viewBox="0 0 512.003 512.003"><path d="M376.001 208.002c-5.629-17.291-18.807-20.72-27.042-14.339l11.042-9.661c13.5-49.5 56-136 56-136l-32 16 16-56-40 48-8-32s-55.122 81.925-55.98 216c-25.241-9.521-52.052-8.894-80.04 0-.827-134.147-55.98-216-55.98-216l-8 32-40-48 16 56-32-16s42.5 86.5 56 136l11.042 9.661c-8.235-6.381-21.412-2.952-27.042 14.339-9.09 27.921 25.333 78.667 16 120h.208c-8.618 24.483-16.232 50.688-16.232 80 0 61.856 53.726 96 120 96h.05c66.274 0 120-34.144 120-96 0-29.313-7.615-55.517-16.232-80h.206c-9.333-41.334 25.091-92.079 16-120" style="fill:#ffa54b"/><path d="M376.001 208.002c-7-21.5-25.676-21.581-32-8-19.857 42.644-.286 82.322 15.792 128h.208c-9.333-41.334 25.091-92.079 16-120M152.001 328.002h.208c16.078-45.678 35.649-85.356 15.792-128-6.324-13.581-25-13.5-32 8-9.09 27.921 25.334 78.666 16 120" style="fill:#b47d5a"/><path d="M256.001 231.203c-48.5.799-80.75 18.049-102.233 61.704 10.367-2.362 22.257 4.122 25.482 24.041 4.797 29.629 22.017 83.347 66.173 91.054h21.156c44.156-7.707 61.376-61.425 66.173-91.054 3.225-19.919 15.116-26.403 25.482-24.041-25.983-41.905-56.45-62.458-102.233-61.704" style="fill:#c3875a"/><path d="M222.751 453.502c0 15.74 14.887 28.5 33.25 28.5s33.25-12.76 33.25-28.5z" style="fill:#ffcda5"/><path d="M236.251 459.252c0 10.908 8.842 19.75 19.75 19.75s19.75-8.842 19.75-19.75z" style="fill:#b47d5a"/><path d="M256.001 391.752c-19.585 0-47.5 28.5-47.5 47.5 0 14.25 9.5 28.5 23.75 28.5 11.383 0 17.603-5.144 20.788-12.315.521-1.173 1.679-1.935 2.962-1.935s2.441.761 2.962 1.935c3.185 7.171 9.404 12.315 20.788 12.315 14.25 0 23.75-14.25 23.75-28.5 0-19-27.915-47.5-47.5-47.5" style="fill:#ffdeb7"/><circle cx="256.001" cy="401.751" r="23.75" style="fill:#ffa54b"/><path d="M187.977 328.002c-7.402 0-12 7.664-12 20s4.598 20 12 20 12-7.664 12-20-4.599-20-12-20M311.978 348.002c0 12.336 4.598 20 12 20s12-7.664 12-20-4.598-20-12-20-12 7.664-12 20M300.518 425.398a8 8 0 0 0-11.119 2.089 8 8 0 0 0 2.089 11.119c1.686 1.153 4.514 3.603 4.514 7.061 0 5.505-7.477 10.335-16 10.335s-16-4.83-16-10.335v-13.051a22 22 0 0 0 7.646-4.971l5.986-5.985a8 8 0 1 0-11.314-11.314l-5.986 5.986a6.17 6.17 0 0 1-8.715 0l-5.985-5.985a8 8 0 0 0-11.313 0 8 8 0 0 0 0 11.314l5.985 5.985a22 22 0 0 0 7.696 4.99v13.033c0 5.505-7.477 10.335-16 10.335s-16-4.83-16-10.335c0-3.458 2.829-5.908 4.514-7.061a8 8 0 1 0-9.03-13.208c-7.298 4.99-11.484 12.378-11.484 20.269 0 14.521 14.355 26.335 32 26.335 0 2.047.781 4.095 2.343 5.657l3.797 3.797c4.924 4.923 11.392 7.385 17.86 7.385s12.936-2.462 17.86-7.386l3.797-3.797a7.97 7.97 0 0 0 2.343-5.657c17.645 0 32-11.814 32-26.335-.001-7.892-4.186-15.28-11.484-20.27m-51.063 44.744-1.609-1.609c3.074-1.448 5.828-3.302 8.156-5.475 2.328 2.173 5.082 4.026 8.155 5.475l-1.609 1.609c-3.609 3.61-9.484 3.609-13.093 0"/><path d="M421.639 42.325a8 8 0 0 0-9.215-1.479l-15.734 7.867 11.004-38.514a8.002 8.002 0 0 0-13.838-7.32l-29.915 35.898-4.179-16.716a8 8 0 0 0-14.315-2.647c-.595.85-14.737 21.251-28.929 58.757-12.301 32.51-26.828 84.342-28.375 150.301-10.723-3.492-21.48-5.263-32.105-5.269h-.076c-10.626.006-21.385 1.777-32.109 5.271-1.573-64.694-16.078-116.522-28.362-149.281-14.171-37.789-28.274-58.802-28.867-59.678a8 8 0 0 0-14.385 2.546l-4.179 16.716L118.147 2.88a8 8 0 0 0-13.838 7.32l11.004 38.514-15.734-7.867A8.001 8.001 0 0 0 88.821 51.53c.419.853 41.812 85.349 55.219 133.705-6.922 3.549-12.5 10.629-15.646 20.291-5.069 15.568.795 35.333 7.002 56.259 6.52 21.977 13.262 44.702 8.801 64.456a8 8 0 0 0-.146.855c-8.469 24.322-16.076 51.171-16.076 80.907 0 31.97 13.261 58.803 38.351 77.599 22.727 17.025 54.564 26.401 89.699 26.401 35.085 0 66.923-9.376 89.649-26.401 25.089-18.795 38.351-45.628 38.351-77.599 0-29.736-7.607-56.585-16.076-80.907a8 8 0 0 0-.146-.855c-4.461-19.753 2.281-42.479 8.801-64.456 6.208-20.926 12.071-40.691 7.002-56.259-3.146-9.661-8.723-16.742-15.646-20.291 13.402-48.339 54.8-132.852 55.219-133.705a8 8 0 0 0-1.54-9.205M143.608 210.479c2.733-8.395 7.216-11.599 10.5-11.797q.175-.01.349-.011c2.575 0 4.908 1.736 6.292 4.708 9.629 20.679 9.099 40.801 4.107 61.83-.208.842-.415 1.691-.629 2.515-.022.086-.034.172-.054.258-1.556 6.115-3.465 12.313-5.589 18.626-2.121-10.071-5.06-19.98-7.847-29.375-5.481-18.471-10.656-35.919-7.129-46.754m217.659 46.754c-2.787 9.395-5.727 19.304-7.847 29.375-9.781-29.067-15.006-55.653-2.166-83.229 1.384-2.972 3.717-4.708 6.292-4.708q.174 0 .349.011c3.284.199 7.766 3.403 10.5 11.797 3.527 10.835-1.648 28.283-7.128 46.754m-8.983-75.336a8 8 0 0 0-.252 1.463c-5.352 1.386-10.044 4.811-13.324 9.772-.029-27.474 3.595-55.407 12.686-78.162a8 8 0 1 0-14.858-5.936c-9.325 23.342-14.1 53.151-13.807 86.206.232 26.262 3.705 54.151 9.527 76.514.036.136.096.258.138.391 3.55 13.866 8.652 27.778 13.866 41.972 10.702 29.13 21.768 59.252 21.768 93.885 0 60.79-56.251 88-112.05 88-55.749 0-112-27.21-112-88 0-34.633 11.066-64.755 21.768-93.885 5.263-14.327 10.412-28.365 13.965-42.361v-.001l.008-.031c.174-.688.349-1.376.516-2.064 5.502-21.999 8.778-48.964 9.004-74.419.292-33.055-4.482-62.864-13.807-86.206a8 8 0 0 0-10.397-4.461 8 8 0 0 0-4.461 10.397c9.084 22.74 12.71 50.652 12.686 78.109-3.278-4.931-7.956-8.335-13.286-9.717a8 8 0 0 0-.252-1.466c-9.566-35.076-32.948-87.375-46.476-116.329l11.18 5.59a7.998 7.998 0 0 0 11.27-9.353l-5.598-19.592 15.76 18.912a8 8 0 0 0 13.907-3.181l3.182-12.729c15.664 30.137 45.055 99.401 45.055 194.787 0 4.187 3.218 7.617 7.315 7.965.123.011.248.013.372.019.104.004.207.016.313.016l.05-.002a8 8 0 0 0 3.198-.668c12.323-5.391 24.688-8.125 36.752-8.128 12.063.003 24.429 2.738 36.752 8.128a8 8 0 0 0 3.202.672l.035-.002h.011c.359 0 .71-.032 1.057-.078q.048-.007.095-.015c3.871-.56 6.848-3.881 6.848-7.908 0-68.741 14.822-122.542 27.256-155.57 6.341-16.844 12.723-30.148 17.72-39.54l3.263 13.05a7.998 7.998 0 0 0 13.907 3.181l15.76-18.912-5.598 19.592a8 8 0 0 0 11.27 9.353l11.18-5.59c-13.528 28.957-36.91 81.256-46.476 116.332"/></svg>